<?xml version="1.0" standalone="no"?><!DOCTYPE svg PUBLIC "-//W3C//DTD SVG 1.1//EN" "http://www.w3.org/Graphics/SVG/1.1/DTD/svg11.dtd"><svg t="1674197711212" class="icon" viewBox="0 0 1024 1024" version="1.1" xmlns="http://www.w3.org/2000/svg" p-id="3473" xmlns:xlink="http://www.w3.org/1999/xlink" width="200" height="200"><path d="M361.984 553.642667l78.677333-78.677334a23.722667 23.722667 0 0 0 0-34.133333l-243.370666-242.346667a23.552 23.552 0 0 0-34.133334 0l-2.56 2.901334a159.232 159.232 0 0 0 18.773334 203.434666l149.162666 148.992a23.893333 23.893333 0 0 0 32.768 0z" fill="#EF6D59" p-id="3474"></path><path d="M572.416 539.306667l31.402667-30.549334a24.064 24.064 0 0 1 23.722666-4.949333c59.392 19.968 136.533333-1.536 195.584-59.904 75.605333-75.946667 90.453333-184.32 32.085334-242.688S689.493333 157.696 612.693333 233.301333c-58.538667 58.368-79.530667 136.533333-60.074666 195.754667a23.381333 23.381333 0 0 1-4.778667 23.552L187.733333 812.544a23.381333 23.381333 0 0 0 0 33.109333l22.528 22.528a23.552 23.552 0 0 0 33.28 0l238.933334-238.933333a23.722667 23.722667 0 0 1 33.28 0l238.933333 238.933333a23.552 23.552 0 0 0 34.133333 0l22.357334-23.722666a23.552 23.552 0 0 0 0-33.28l-238.933334-238.933334a23.722667 23.722667 0 0 1 0-34.133333z" fill="#EF6D59" p-id="3475"></path></svg>